# xmcd CD database file
#
# Track frame offsets:
#	182
#	18837
#	36127
#	50762
#	71032
#	95122
#	114117
#	137407
#	155325
#	178437
#	203202
#	220455
#	238630
#	263225
#	281337
#	298475
#	318582
#	335567
#
# Disc length: 4683 seconds
#
# Revision: 7
# Processed by: cddbd v1.5.2PL0 Copyright (c) Steve Scherf et al.
# Submitted via: cdripper 1,0,39,0213
#
DISCID=1d124912
DTITLE=Various Artist - 100% Pure Groove cd2
DYEAR=1996
DGENRE=Dance
TTITLE0=Mantronix - Got To Have Your Love
TTITLE1=Family Stand, The - Ghetto Heaven [Remix Edit]
TTITLE2=Change - Searching
TTITLE3=Blackbyrds, The - Rock Creek Park
TTITLE4=Cheryl Lynn - Encore
TTITLE5=Fat Larry's Band - Act Like You Know
TTITLE6=Roy Ayers - Love Will Bring Us Back Together
TTITLE7=Teena Marie - Behind The Groove
TTITLE8=Gap Band, The - Outstanding
TTITLE9=Howard Johnson - So fine
TTITLE10=Midnight Star - Curious
TTITLE11=Keni Burke - Risin' To The Top
TTITLE12=Mac Band, The f. The McCampbell Brothers - Roses Are Red
TTITLE13=Patrice Rushen - Forget Me Nots
TTITLE14=Brass Construction - Movin'
TTITLE15=Meli'sa Morgan - Fools Paradise
TTITLE16=Heatwave f. Jocelyn Brown - Feel Like Making Love
TTITLE17=Light Of The World - London Town
EXTD=YEAR: 1996
EXTT0=
EXTT1=
EXTT2=
EXTT3=
EXTT4=
EXTT5=
EXTT6=
EXTT7=
EXTT8=
EXTT9=
EXTT10=
EXTT11=
EXTT12=
EXTT13=
EXTT14=
EXTT15=
EXTT16=
EXTT17=
PLAYORDER=
